D:\softs\github_david\PredSimResults\Falisse_et_al_2022\Falisse_et_al_2022_v1_GRF.mot
version=1
nRows=15
nColumns=19
inDegrees=yes
endheader
                time	   ground_force_r_vx	   ground_force_r_vy	   ground_force_r_vz	   ground_force_r_px	   ground_force_r_py	   ground_force_r_pz	   ground_torque_r_x	   ground_torque_r_y	   ground_torque_r_z	   ground_force_l_vx	   ground_force_l_vy	   ground_force_l_vz	   ground_force_l_px	   ground_force_l_py	   ground_force_l_pz	   ground_torque_l_x	   ground_torque_l_y	   ground_torque_l_z	
          1.10266409	        -73.44259195	         72.55400772	         21.65197976	          0.19876921	          0.00000000	          0.04494740	         -3.26111375	         -7.60480077	         14.42150269	         77.85822189	        441.88770449	          7.83583018	         -0.31060923	          0.00000000	         -0.05924627	         26.18019696	         -5.31116741	       -137.25440069	
          1.11369073	        -33.54165726	        213.11624851	         17.90336259	          0.20345432	          0.00000000	          0.04365462	         -9.30350841	         -5.10688740	         43.35942235	         71.64000803	        383.52223824	          4.42346269	         -0.30316987	          0.00000000	         -0.06134624	         23.52764729	         -5.77905365	       -116.27238703	
          1.12471737	        -39.04303749	        379.78809101	         -4.04239581	          0.20464300	          0.00000000	          0.04293581	        -16.30650817	         -0.85310063	         77.72097291	         63.87707054	        331.84177552	          1.89168972	         -0.29689154	          0.00000000	         -0.06334609	         21.02087791	         -5.63715958	        -98.52101430	
          1.13574402	        -60.55972993	        516.80849539	        -11.87140811	          0.20569578	          0.00000000	          0.04281907	        -22.12926150	         -0.21970790	        106.30532855	         57.36386642	        293.23608369	         -3.49216860	         -0.29542559	          0.00000000	         -0.06279446	         18.41360248	         -6.51377075	        -86.62944415	
          1.14677066	        -72.52894987	        599.85460973	        -12.93722221	          0.20774331	          0.00000000	          0.04322552	        -25.92902763	         -0.76733489	        124.61578448	         52.59709541	        248.23746200	         -9.62628055	         -0.29411658	          0.00000000	         -0.06128241	         15.21259085	         -7.60889681	        -73.01075394	
          1.15779730	        -87.84976044	        666.68623529	        -14.18010830	          0.21286335	          0.00000000	          0.04493896	        -29.96018729	         -2.00248708	        141.91306728	         45.49145036	        197.13061949	        -14.21291537	         -0.29235473	          0.00000000	         -0.05910185	         11.65078378	         -8.00070395	        -57.63206940	
          1.16882394	        -95.19054936	        710.83273454	        -16.36150669	          0.21869593	          0.00000000	          0.04687874	        -33.32294645	         -2.51308476	        155.45622471	         34.33291653	        143.14100223	        -17.84054725	         -0.29012305	          0.00000000	         -0.05605958	          8.02442409	         -7.84114039	        -41.52850468	
          1.17985058	        -94.43760816	        721.50523990	        -16.78448667	          0.22379274	          0.00000000	          0.04807338	        -34.68519555	         -2.76902748	        161.46763677	         17.25366260	         89.33094965	        -17.29171295	         -0.28736208	          0.00000000	         -0.05117678	          4.57167004	         -6.22028750	        -25.67032760	
          1.19087722	        -89.12731957	        720.86881444	        -16.46072122	          0.22867635	          0.00000000	          0.04862052	        -35.04901614	         -2.94713284	        164.84564586	         -2.91058448	         34.46161597	         -9.41609291	         -0.28252267	          0.00000000	         -0.03630895	          1.25126503	         -2.63553194	         -9.73618792	
          1.20190386	        -84.65541661	        723.23815547	        -16.56359137	          0.23494645	          0.00000000	          0.04814456	        -34.81998186	         -3.24970582	        169.92223952	         -0.70887033	          0.76386356	         -0.16073843	          0.00000000	          0.00000000	          0.00000000	          0.01133302	         -0.03368406	         -0.21008390	
          1.21293050	        -77.69234132	        714.83974906	        -16.48307175	          0.24161471	          0.00000000	          0.04708375	        -33.65733701	         -3.51578416	        172.71580179	          0.00023744	         -0.00019986	          0.00001058	          0.00000000	          0.00000000	          0.00000000	         -0.00000288	         -0.00000062	          0.00005281	
          1.22395714	        -68.97346525	        690.76183784	        -15.40301989	          0.24760643	          0.00000000	          0.04626833	        -31.96039625	         -3.82824208	        171.03706952	          0.00001729	         -0.00001235	          0.00000024	          0.00000000	          0.00000000	          0.00000000	         -0.00000018	         -0.00000019	          0.00000306	
          1.23498378	        -60.06614331	        662.74161754	        -14.94035396	          0.25303035	          0.00000000	          0.04569415	        -30.28341356	         -3.92136190	        167.69374528	          0.00006252	         -0.00003922	         -0.00000032	          0.00000000	          0.00000000	          0.00000000	         -0.00000057	         -0.00000098	          0.00000886	
          1.24601043	        -51.56190685	        635.43187881	        -15.03652647	          0.25818816	          0.00000000	          0.04525501	        -28.75647511	         -3.81260662	        164.06099039	          0.00073099	         -0.00041284	         -0.00001270	          0.00000000	          0.00000000	          0.00000000	         -0.00000660	         -0.00001424	          0.00008289	
          1.25703707	        -43.97900887	        611.50998637	        -15.60162206	          0.26336281	          0.00000000	          0.04487854	        -27.44367685	         -3.51696088	        161.04898564	         -0.00456884	          0.00236454	          0.00012681	          0.00000000	          0.00000000	          0.00000000	          0.00005026	          0.00011893	         -0.00040955	
